G04 DipTrace 3.0.0.1*
G04 Bottom.gbr*
%MOIN*%
G04 #@! TF.FileFunction,Copper,L2,Bot*
G04 #@! TF.Part,Single*
G04 #@! TA.AperFunction,Conductor*
%ADD13C,0.025*%
G04 #@! TA.AperFunction,ViaPad*
%ADD14C,0.04*%
G04 #@! TA.AperFunction,Conductor*
%ADD15C,0.013*%
%ADD16C,0.017*%
G04 #@! TA.AperFunction,ComponentPad*
%ADD17R,0.062992X0.062992*%
%ADD18C,0.062992*%
%ADD19R,0.059055X0.059055*%
%ADD20C,0.059055*%
%ADD24C,0.06*%
%ADD25R,0.06X0.06*%
%ADD26R,0.074803X0.074803*%
%ADD27C,0.074803*%
%ADD28C,0.05*%
%ADD29C,0.05*%
%ADD30C,0.055*%
%ADD35C,0.062992*%
%ADD36O,0.062992X0.11811*%
%FSLAX26Y26*%
G04*
G70*
G90*
G75*
G01*
G04 Bottom*
%LPD*%
X1476667Y3377314D2*
D13*
X1427978Y3328625D1*
Y2959152D1*
X1395167Y2926341D1*
X1015466D1*
X755694D1*
X706667Y2877314D1*
X2335194Y1596814D2*
Y1921366D1*
X2053702Y2202858D1*
X2051122D1*
X1976667Y2277314D1*
X1776667Y3277314D2*
Y3047814D1*
X1795514Y3028966D1*
X2025014D1*
X2076667Y2977314D1*
X876667Y2677314D2*
X921828Y2722475D1*
X994505D1*
X1076667Y2640314D1*
Y2277314D1*
X973870Y1016382D2*
X904364Y1085888D1*
Y1262451D1*
Y1344957D1*
X703303Y1546017D1*
Y1686143D1*
D14*
Y1765996D1*
Y2032892D1*
X718202D1*
X994505Y2722475D2*
D13*
X1021063D1*
X1043722Y2745134D1*
Y2898085D1*
X1015466Y2926341D1*
X718202Y2032892D2*
D14*
Y2132892D1*
X973870Y1016382D2*
D13*
X984192D1*
Y896589D1*
X995500Y885281D1*
X904364Y1262451D2*
X781118D1*
X730146Y1313424D1*
X1076667Y2277314D2*
X1027517Y2228164D1*
Y2092243D1*
X968167Y2032892D1*
X718202D1*
X576667Y1707314D2*
D14*
Y1607314D1*
X476667D2*
Y1707314D1*
X576667D2*
X644621D1*
X703303Y1765996D1*
X576667Y1607314D2*
X624474D1*
X703303Y1686143D1*
X1869037Y2018934D2*
D16*
Y2084944D1*
X1776667Y2177314D1*
X2224759Y994762D2*
X2226667Y996671D1*
Y1396814D1*
X1423265Y1388944D2*
Y1165777D1*
X1273870Y1016382D1*
X1860000Y1388944D2*
X1913024Y1441967D1*
X2040358D1*
X576667Y2407314D2*
D14*
Y2307314D1*
X1216769Y1388945D2*
D16*
Y1485652D1*
X1171475Y1530946D1*
Y1607312D1*
X823650Y801816D2*
X772651D1*
Y851625D1*
X830146Y909119D1*
Y1013424D1*
X2076667Y3702825D2*
X1976667D1*
X1576667Y3277314D2*
Y2414314D1*
X1076667Y3702825D2*
X976667D1*
X2176667D2*
X2226167D1*
X2276667D1*
X476667Y2307314D2*
D14*
Y2407314D1*
X2376667Y3702825D2*
D16*
X2476667D1*
X1774438Y4069949D2*
X1874438D1*
X1274438D2*
X1174438D1*
X1374438D2*
X1474438D1*
X2174438D2*
X2274438D1*
X1776667Y2177314D2*
X1821167Y2221814D1*
Y2421814D1*
X1976667Y2577314D1*
X2226667Y1396814D2*
Y1743672D1*
X2122474Y1847865D1*
X1269909Y885281D2*
X1340874Y814316D1*
X1441760D1*
X1273870Y1016382D2*
Y889241D1*
X1269909Y885281D1*
X2040358Y1441967D2*
X1971475Y1510850D1*
Y1607312D1*
X717428Y2232745D2*
D14*
Y2332745D1*
X576667Y2307314D2*
X651235Y2232745D1*
X717428D1*
X1976667Y3702825D2*
D16*
Y3792944D1*
X2023938Y3840215D1*
Y4019449D1*
X2074438Y4069949D1*
X1576667Y2414314D2*
X1413667D1*
X1276667Y2277314D1*
X976667Y3702825D2*
X881415D1*
X804930Y3626341D1*
X677698D1*
X651698Y3600341D1*
Y3552341D1*
X677698Y3526341D1*
X895167D1*
X927503Y3494005D1*
Y3126478D1*
X976667Y3077314D1*
X1874438Y4069949D2*
X1974438D1*
X974438D2*
Y4053769D1*
X1023938Y4004269D1*
Y3868129D1*
X976667Y3820857D1*
Y3702825D1*
X1074438Y4069949D2*
X974438D1*
X1174438D2*
X1074438D1*
X2374438D2*
X2474438D1*
X2274438D2*
X2374438D1*
X2226167Y3702825D2*
D15*
Y3426814D1*
X2076667Y3277314D1*
X2396693Y3150854D2*
X2472194Y3075353D1*
Y2826356D1*
X2396693Y2750854D1*
X576667Y2407314D2*
D14*
X642860D1*
X717428Y2332745D1*
X771475Y1607312D2*
D15*
Y1807314D1*
X871475Y1907314D1*
X1969037Y2018934D2*
X2018478Y1969493D1*
Y1757314D1*
X1590874Y1486593D2*
Y1531093D1*
X1571475Y1550492D1*
Y1607312D1*
X2289516Y1493232D2*
X2405881Y1492672D1*
X2040358Y1241967D2*
X1985021D1*
X1938045Y1288944D1*
X1860000D1*
X2182049Y1492831D2*
Y1299963D1*
X2124052Y1241967D1*
X2040358D1*
X2071475Y1607312D2*
X2156046D1*
X2182049Y1581310D1*
Y1492831D1*
X2018478Y1757314D2*
Y1660311D1*
X2071475Y1607312D1*
X1174584Y885281D2*
X1173870Y1016382D1*
Y1096117D1*
X1318478Y1240724D1*
Y1554316D1*
X1371475Y1607312D1*
X1090824Y885281D2*
Y936280D1*
X1073870Y953234D1*
Y1016382D1*
X1122899Y1065411D1*
Y1628314D1*
X1148899Y1654314D1*
X1424474D1*
X1471475Y1607312D1*
X1216769Y1288945D2*
X1271475Y1343651D1*
Y1607312D1*
X2069037Y2018934D2*
X2071475Y2016496D1*
Y1907314D1*
X1769037Y2018934D2*
Y1909752D1*
X1771475Y1907314D1*
X1669037Y2018934D2*
Y1909752D1*
X1671475Y1907314D1*
X1526787Y2107463D2*
X1425076D1*
Y2109075D1*
X1871475Y1607312D2*
X1871474Y1481467D1*
X2182049Y1192831D2*
X2180189Y1190971D1*
X1797478D1*
X1771475Y1216974D1*
Y1607312D1*
X1698425Y1187560D2*
X1635375Y1250610D1*
Y1522644D1*
X1618478Y1539542D1*
Y1654314D1*
X1592478Y1680314D1*
X1497478D1*
X1471475Y1706316D1*
Y1907314D1*
X1971475D2*
X1918478Y1960311D1*
Y2094007D1*
X1876667Y2135818D1*
Y2177314D1*
X1871475Y1907314D2*
X1818478Y1960311D1*
Y2043209D1*
X1684373Y2177314D1*
X1676667D1*
X1376667D2*
Y2067963D1*
X1402667Y2041963D1*
X1492478D1*
X1518478Y2015963D1*
Y1732314D1*
X1544478Y1706314D1*
X1645474D1*
X1671475Y1680312D1*
Y1607312D1*
X1171475Y1907314D2*
X1221167Y1957005D1*
Y2232814D1*
X1176667Y2277314D1*
X871475Y1607312D2*
Y1732314D1*
X1018478Y1879316D1*
Y1925219D1*
X1076667Y1983408D1*
Y2177314D1*
X706667Y2977314D2*
X625694Y3058286D1*
Y3130341D1*
X599694Y3156341D1*
X527639D1*
X476667Y3207314D1*
X706667Y3177314D2*
X681222D1*
X651694Y3206841D1*
Y3232286D1*
X576667Y3307314D1*
X706667Y3577314D2*
X904995D1*
X1021167Y3461142D1*
Y3332814D1*
X1076667Y3277314D1*
X706667Y3377314D2*
X655694D1*
X625694Y3407314D1*
X576667D1*
X476667Y3107314D2*
X525694Y3058286D1*
Y2882341D1*
X551694Y2856341D1*
X608430D1*
X642958Y2821814D1*
X932167D1*
X976667Y2777314D1*
X476667Y3007314D2*
X427639Y2958286D1*
Y2782341D1*
X453639Y2756341D1*
X722915D1*
X743887Y2777314D1*
X876667D1*
X976667Y2577314D2*
X925699Y2526346D1*
X843436D1*
X773430Y2456341D1*
X551694D1*
X525694Y2430341D1*
Y1356341D1*
X476667Y1307314D1*
X1016656Y1311080D2*
X918478Y1409259D1*
Y1680314D1*
X944478Y1706314D1*
X1295167D1*
X1321167Y1732314D1*
Y2221814D1*
X1376667Y2277314D1*
X576667Y2207314D2*
X608441D1*
X638101Y2177654D1*
X777007D1*
X876667Y2277314D1*
X921167Y2218329D2*
Y2321814D1*
X976667Y2377314D1*
X639194Y1507314D2*
X576667D1*
X2296693Y2750854D2*
Y2597340D1*
X2076667Y2377314D1*
X2174438Y3969949D2*
Y3905227D1*
X2126167Y3856955D1*
Y3563882D1*
X2069521Y3507236D1*
X1882066D1*
X1827171Y3452341D1*
Y3352373D1*
X1796612Y3321814D1*
X1721167D1*
X1676667Y3277314D1*
X2276667Y3602825D2*
Y3622325D1*
X2326167Y3671825D1*
Y3827499D1*
X2274438Y3879227D1*
Y3969949D1*
X1876667Y3602825D2*
Y3622325D1*
X1926167Y3671825D1*
Y3868581D1*
X1874438Y3920310D1*
Y3969949D1*
X1774438D2*
Y3886999D1*
X1826167Y3835270D1*
Y3671825D1*
X1776667Y3622325D1*
Y3602825D1*
Y3549965D1*
X1648516Y3421814D1*
X1647167D1*
X1621280Y3395927D1*
Y1752954D1*
X1611337D1*
X1674438Y3969949D2*
Y3908255D1*
X1726167Y3856526D1*
Y3671825D1*
X1676667Y3622325D1*
Y3602825D1*
X1374438Y3969949D2*
Y3778188D1*
X1426167Y3726459D1*
Y3671825D1*
X1376667Y3622325D1*
Y3602825D1*
Y3506101D1*
X1321167Y3450601D1*
Y3321814D1*
X1276667Y3277314D1*
X1174438Y3969949D2*
Y3778188D1*
X1226167Y3726459D1*
Y3671825D1*
X1176667Y3622325D1*
Y3602825D1*
Y3523577D1*
X1221167Y3479077D1*
Y3321814D1*
X1176667Y3277314D1*
X1074438Y3969949D2*
Y3778188D1*
X1126167Y3726459D1*
Y3671825D1*
X1076667Y3622325D1*
Y3602825D1*
Y3477314D1*
X1176667Y3377314D1*
X1474438Y3969949D2*
Y3778188D1*
X1526167Y3726459D1*
Y3671825D1*
X1476667Y3622325D1*
Y3602825D1*
Y3477314D1*
X1376667Y3377314D1*
X1574438Y3969949D2*
Y3830388D1*
X1626167Y3778660D1*
Y3671825D1*
X1576667Y3622325D1*
Y3602825D1*
X1271475Y1907314D2*
Y2003715D1*
X1276667Y2008907D1*
Y2177314D1*
X830146Y1113424D2*
X779173Y1062451D1*
X703694D1*
X677694Y1036451D1*
Y908341D1*
X576667Y807314D1*
X730146Y1213424D2*
X651694Y1134972D1*
Y1082341D1*
X576667Y1007314D1*
X830146Y1313424D2*
X781118Y1362451D1*
X651694D1*
X625694Y1336451D1*
Y1156341D1*
X576667Y1107314D1*
X1676667Y2888861D2*
Y2277314D1*
X1926172Y3328840D2*
Y3431346D1*
X1947167Y3452341D1*
X2084598D1*
X2176667Y3544409D1*
Y3602825D1*
X1276667D2*
Y3622325D1*
X1326167Y3671825D1*
Y3726459D1*
X1274438Y3778188D1*
Y3969949D1*
D14*
X2335194Y1596814D3*
X2224759Y994762D3*
X1423265Y1388944D3*
X1576667Y2414314D3*
X2122474Y1847865D3*
X2226667Y1396814D3*
X2018478Y1757314D3*
X1425076Y2109075D3*
X1526787Y2107463D3*
X1871474Y1481467D3*
X1611337Y1752954D3*
X1676667Y2888861D3*
X1926172Y3328840D3*
X921167Y2218329D3*
X639194Y1507314D3*
D17*
X1216769Y1288945D3*
D18*
Y1388945D3*
D17*
X1860000Y1288944D3*
D18*
Y1388944D3*
X2040358Y1241967D3*
D17*
Y1441967D3*
D19*
X2644280Y1344076D3*
D20*
Y1244076D3*
D19*
X476667Y3507314D3*
D20*
X576667D3*
X476667Y3407314D3*
X576667D3*
X476667Y3307314D3*
X576667D3*
X476667Y3207314D3*
X576667D3*
X476667Y3107314D3*
X576667D3*
X476667Y3007314D3*
X576667D3*
X476667Y2907314D3*
X576667D3*
X476667Y2807314D3*
X576667D3*
X476667Y2707314D3*
X576667D3*
X476667Y2607314D3*
X576667D3*
X476667Y2507314D3*
X576667D3*
X476667Y2407314D3*
X576667D3*
X476667Y2307314D3*
X576667D3*
X476667Y2207314D3*
X576667D3*
X476667Y2107314D3*
X576667D3*
X476667Y2007314D3*
X576667D3*
X476667Y1907314D3*
X576667D3*
X476667Y1807314D3*
X576667D3*
X476667Y1707314D3*
X576667D3*
X476667Y1607314D3*
X576667D3*
D19*
X2069037Y2018934D3*
D20*
X1969037D3*
X1869037D3*
X1769037D3*
X1669037D3*
D24*
X1376667Y3602825D3*
Y3702825D3*
X2576667Y3602825D3*
X2476667D3*
X2376667D3*
X2276667D3*
X2176667D3*
X2076667D3*
X1976667D3*
X1876667D3*
X1776667D3*
X1676667D3*
Y3702825D3*
X1776667D3*
X1876667D3*
X1976667D3*
X2076667D3*
X2176667D3*
X2276667D3*
X2376667D3*
X2476667D3*
D25*
X2576667D3*
D24*
X1576667D3*
Y3602825D3*
X1476667Y3702825D3*
Y3602825D3*
X1276667Y3702825D3*
Y3602825D3*
X1176667Y3702825D3*
Y3602825D3*
X1076667Y3702825D3*
Y3602825D3*
X976667Y3702825D3*
Y3602825D3*
X2396693Y2750854D3*
X2296693D3*
Y2850854D3*
X2396693D3*
X2296693Y2950854D3*
X2396693D3*
X2296693Y3050854D3*
X2396693D3*
Y3150854D3*
D25*
X2296693D3*
D19*
X476667Y1507314D3*
D20*
X576667D3*
X476667Y1407314D3*
X576667D3*
X476667Y1307314D3*
X576667D3*
X476667Y1207314D3*
X576667D3*
X476667Y1107314D3*
X576667D3*
X476667Y1007314D3*
X576667D3*
X476667Y907314D3*
X576667D3*
X476667Y807314D3*
X576667D3*
X476667Y707314D3*
X576667D3*
D26*
X1016656Y1211080D3*
D27*
Y1311080D3*
Y1411080D3*
D28*
X2182049Y1492831D3*
D29*
Y1192831D3*
D28*
X1590874Y1486593D3*
D29*
Y1186593D3*
D28*
X1698425Y1487560D3*
D29*
Y1187560D3*
D28*
X2289516Y1493232D3*
D29*
Y1193232D3*
D28*
X1378764Y1485744D3*
D29*
Y1185744D3*
D28*
X1483455Y1485298D3*
D29*
Y1185298D3*
D28*
X2405881Y1492672D3*
D29*
Y1192672D3*
D20*
X706667Y3777314D3*
Y3677314D3*
Y3577314D3*
Y3477314D3*
Y3377314D3*
Y3277314D3*
Y3177314D3*
Y3077314D3*
Y2977314D3*
D19*
Y2877314D3*
D17*
X2071475Y1907313D3*
D30*
X1971475D3*
X1871475D3*
X1771475D3*
X1671475D3*
X1571475D3*
X1471475D3*
X1371475D3*
X1271475D3*
X1171475D3*
X1071475D3*
X971475D3*
X871475D3*
X771475D3*
Y1607313D3*
X871475D3*
X971475D3*
X1071475D3*
X1171475D3*
X1271475D3*
X1371475D3*
X1471475D3*
X1571475D3*
X1671475D3*
X1771475D3*
X1871475D3*
X1971475D3*
X2071475D3*
D28*
X976667Y2177314D3*
X1076667D3*
X1176667D3*
X876667Y2277314D3*
Y2377314D3*
Y2477314D3*
Y2577314D3*
Y2677314D3*
Y2777314D3*
Y2877314D3*
Y2977314D3*
Y3077314D3*
Y3177314D3*
Y3277314D3*
X1176667Y3377314D3*
X1076667D3*
X976667D3*
Y2277314D3*
Y2377314D3*
Y2477314D3*
Y2577314D3*
Y2677314D3*
Y2777314D3*
Y2877314D3*
Y2977314D3*
Y3077314D3*
Y3177314D3*
Y3277314D3*
X1076667D3*
X1176667D3*
Y2277314D3*
X1076667D3*
X1576667Y2177314D3*
D29*
X1476667D3*
D28*
X1376667D3*
X1276667D3*
X1676667D3*
X1776667D3*
X1876667D3*
X1976667D3*
X2076667Y2277314D3*
Y2377314D3*
Y2477314D3*
Y2577314D3*
Y2677314D3*
Y2777314D3*
Y2877314D3*
Y2977314D3*
Y3077314D3*
Y3177314D3*
Y3277314D3*
X1976667Y3377314D3*
X1876667D3*
X1776667D3*
X1676667D3*
X1576667D3*
X1476667D3*
X1376667D3*
X1276667D3*
Y3277314D3*
X1376667D3*
X1476667D3*
X1576667D3*
X1676667D3*
X1776667D3*
X1876667D3*
X1976667D3*
Y3177314D3*
Y3077314D3*
Y2977314D3*
Y2877314D3*
Y2777314D3*
Y2677314D3*
Y2577314D3*
Y2477314D3*
Y2377314D3*
Y2277314D3*
X1876667D3*
X1776667D3*
X1676667D3*
X1576667D3*
X1476667D3*
X1376667D3*
X1276667D3*
D19*
X973870Y1016382D3*
D20*
X1073870D3*
X1173870D3*
X1273870D3*
D35*
X1269909Y885281D3*
X1174584D3*
X1090824D3*
D17*
X995500D3*
D36*
X823650Y801816D3*
X1441760Y814316D3*
D19*
X830146Y1013424D3*
D20*
X730146D3*
X830146Y1113424D3*
X730146D3*
X830146Y1213424D3*
X730146D3*
X830146Y1313424D3*
X730146D3*
D24*
X1374438Y3969949D3*
Y4069949D3*
X2574438Y3969949D3*
X2474438D3*
X2374438D3*
X2274438D3*
X2174438D3*
X2074438D3*
X1974438D3*
X1874438D3*
X1774438D3*
X1674438D3*
Y4069949D3*
X1774438D3*
X1874438D3*
X1974438D3*
X2074438D3*
X2174438D3*
X2274438D3*
X2374438D3*
X2474438D3*
D25*
X2574438D3*
D24*
X1574438D3*
Y3969949D3*
X1474438Y4069949D3*
Y3969949D3*
X1274438Y4069949D3*
Y3969949D3*
X1174438Y4069949D3*
Y3969949D3*
X1074438Y4069949D3*
Y3969949D3*
X974438Y4069949D3*
Y3969949D3*
D19*
X717428Y2232745D3*
D20*
Y2332745D3*
D19*
X718202Y2032892D3*
D20*
Y2132892D3*
M02*
