M48
INCH
T01C0.0191
T02C0.022
T03C0.034
T04C0.035
T05C0.0354
T06C0.0362
T07C0.038
T08C0.0433
T09C0.063
%
T01
X+023352Y+015968
X+022267Y+013968
X+018715Y+014815
X+020185Y+017573
X+021225Y+018479
X+016113Y+017530
X+015268Y+021075
X+014251Y+021091
X+015767Y+024143
X+016767Y+028889
X+019262Y+033288
X+009212Y+022183
X+006392Y+015073
X+014233Y+013889
X+022248Y+009948
T02
X+021820Y+014928
X+022895Y+014932
X+024059Y+014927
X+024059Y+011927
X+022895Y+011932
X+021820Y+011928
X+016984Y+011876
X+015909Y+011866
X+014835Y+011853
X+013788Y+011857
X+013788Y+014857
X+014835Y+014853
X+015909Y+014866
X+016984Y+014876
T03
X+009767Y+021773
X+010767Y+021773
X+011767Y+021773
X+011767Y+022773
X+010767Y+022773
X+009767Y+022773
X+009767Y+023773
X+009767Y+024773
X+008767Y+024773
X+008767Y+025773
X+008767Y+026773
X+008767Y+027773
X+008767Y+028773
X+008767Y+029773
X+008767Y+030773
X+008767Y+031773
X+008767Y+032773
X+009767Y+032773
X+010767Y+032773
X+010767Y+033773
X+009767Y+033773
X+011767Y+033773
X+011767Y+032773
X+012767Y+032773
X+012767Y+033773
X+013767Y+033773
X+014767Y+033773
X+015767Y+033773
X+016767Y+033773
X+017767Y+033773
X+018767Y+033773
X+019767Y+033773
X+019767Y+032773
X+020767Y+032773
X+020767Y+031773
X+019767Y+031773
X+019767Y+030773
X+020767Y+030773
X+020767Y+029773
X+019767Y+029773
X+019767Y+028773
X+020767Y+028773
X+020767Y+027773
X+019767Y+027773
X+019767Y+026773
X+020767Y+026773
X+020767Y+025773
X+019767Y+025773
X+019767Y+024773
X+020767Y+024773
X+020767Y+023773
X+019767Y+023773
X+019767Y+022773
X+020767Y+022773
X+019767Y+021773
X+018767Y+021773
X+017767Y+021773
X+016767Y+021773
X+015767Y+021773
X+014767Y+021773
X+013767Y+021773
X+012767Y+021773
X+012767Y+022773
X+013767Y+022773
X+014767Y+022773
X+015767Y+022773
X+016767Y+022773
X+017767Y+022773
X+018767Y+022773
X+009767Y+025773
X+009767Y+026773
X+009767Y+027773
X+009767Y+028773
X+009767Y+029773
X+009767Y+030773
X+009767Y+031773
X+013767Y+032773
X+014767Y+032773
X+015767Y+032773
X+016767Y+032773
X+017767Y+032773
X+018767Y+032773
X+008767Y+023773
X+008767Y+022773
T04
X+019715Y+019073
X+018715Y+019073
X+017715Y+019073
X+016715Y+019073
X+015715Y+019073
X+014715Y+019073
X+013715Y+019073
X+012715Y+019073
X+011715Y+019073
X+010715Y+019073
X+009715Y+019073
X+008715Y+019073
X+007715Y+019073
X+007715Y+016073
X+008715Y+016073
X+009715Y+016073
X+010715Y+016073
X+011715Y+016073
X+012715Y+016073
X+013715Y+016073
X+014715Y+016073
X+015715Y+016073
X+016715Y+016073
X+017715Y+016073
X+018715Y+016073
X+019715Y+016073
X+020715Y+016073
T05
X+012168Y+012889
X+012168Y+013889
X+011739Y+010164
X+010739Y+010164
X+009739Y+010164
X+008301Y+010134
X+007301Y+010134
X+007301Y+011134
X+008301Y+011134
X+008301Y+012134
X+007301Y+012134
X+007301Y+013134
X+008301Y+013134
X+005767Y+013073
X+004767Y+013073
X+004767Y+014073
X+005767Y+014073
X+005767Y+015073
X+004767Y+015073
X+004767Y+016073
X+005767Y+016073
X+005767Y+017073
X+004767Y+017073
X+004767Y+018073
X+005767Y+018073
X+005767Y+019073
X+004767Y+019073
X+004767Y+020073
X+005767Y+020073
X+005767Y+021073
X+004767Y+021073
X+004767Y+022073
X+005767Y+022073
X+005767Y+023073
X+004767Y+023073
X+004767Y+024073
X+005767Y+024073
X+005767Y+025073
X+004767Y+025073
X+004767Y+026073
X+005767Y+026073
X+005767Y+027073
X+004767Y+027073
X+004767Y+028073
X+005767Y+028073
X+005767Y+029073
X+004767Y+029073
X+004767Y+030073
X+005767Y+030073
X+005767Y+031073
X+004767Y+031073
X+004767Y+032073
X+005767Y+032073
X+005767Y+033073
X+004767Y+033073
X+004767Y+034073
X+005767Y+034073
X+005767Y+035073
X+004767Y+035073
X+007067Y+034773
X+007067Y+035773
X+007067Y+036773
X+007067Y+037773
X+007067Y+033773
X+007067Y+032773
X+007067Y+031773
X+007067Y+030773
X+007067Y+029773
X+007067Y+028773
X+007174Y+023327
X+007174Y+022327
X+007182Y+021329
X+007182Y+020329
X+005767Y+012073
X+004767Y+012073
X+004767Y+011073
X+005767Y+011073
X+005767Y+010073
X+004767Y+010073
X+004767Y+009073
X+005767Y+009073
X+005767Y+008073
X+004767Y+008073
X+004767Y+007073
X+005767Y+007073
X+008236Y+007743G85X+008236Y+008294
X+012739Y+010164
X+014418Y+007868G85X+014418Y+008419
X+018600Y+012889
X+018600Y+013889
X+020404Y+014420
X+020404Y+012420
X+026443Y+012441
X+026443Y+013441
X+020715Y+019073
X+020690Y+020189
X+019690Y+020189
X+018690Y+020189
X+017690Y+020189
X+016690Y+020189
T06
X+012699Y+008853
X+011746Y+008853
X+010908Y+008853
X+009955Y+008853
T07
X+013767Y+036028
X+013767Y+037028
X+014767Y+037028
X+015767Y+037028
X+016767Y+037028
X+016767Y+036028
X+017767Y+036028
X+018767Y+036028
X+019767Y+036028
X+020767Y+036028
X+021767Y+036028
X+022767Y+036028
X+023767Y+036028
X+023767Y+037028
X+022767Y+037028
X+021767Y+037028
X+020767Y+037028
X+019767Y+037028
X+018767Y+037028
X+017767Y+037028
X+015767Y+036028
X+014767Y+036028
X+012767Y+036028
X+011767Y+036028
X+011767Y+037028
X+012767Y+037028
X+010767Y+037028
X+010767Y+036028
X+009767Y+036028
X+009767Y+037028
X+009744Y+039699
X+010744Y+039699
X+011744Y+039699
X+012744Y+039699
X+013744Y+039699
X+013744Y+040699
X+014744Y+040699
X+015744Y+040699
X+016744Y+040699
X+016744Y+039699
X+017744Y+039699
X+018744Y+039699
X+019744Y+039699
X+020744Y+039699
X+021744Y+039699
X+022744Y+039699
X+023744Y+039699
X+024744Y+039699
X+025744Y+039699
X+025744Y+040699
X+024744Y+040699
X+023744Y+040699
X+022744Y+040699
X+021744Y+040699
X+020744Y+040699
X+019744Y+040699
X+018744Y+040699
X+017744Y+040699
X+015744Y+039699
X+014744Y+039699
X+012744Y+040699
X+011744Y+040699
X+010744Y+040699
X+009744Y+040699
X+024767Y+037028
X+024767Y+036028
X+025767Y+036028
X+025767Y+037028
X+023967Y+031509
X+023967Y+030509
X+022967Y+030509
X+022967Y+031509
X+022967Y+029509
X+022967Y+028509
X+022967Y+027509
X+023967Y+027509
X+023967Y+028509
X+023967Y+029509
T08
X+017281Y+009596
X+010167Y+012111
X+010167Y+013111
X+010167Y+014111
T09
X+025549Y+009596
T00
M30
