G04 DipTrace 3.0.0.1*
G04 TopSilk.gbr*
%MOIN*%
G04 #@! TF.FileFunction,Legend,Top*
G04 #@! TF.Part,Single*
%ADD10C,0.009843*%
%ADD31C,0.03537*%
%ADD32C,0.015431*%
%FSLAX26Y26*%
G04*
G70*
G90*
G75*
G01*
G04 TopSilk*
%LPD*%
X1228589Y1209064D2*
D10*
X1204949D1*
X1216769Y1197245D2*
Y1220858D1*
X1116769Y1338974D2*
G02X1116769Y1338974I100000J0D01*
G01*
X1871820Y1209062D2*
X1848180D1*
X1860000Y1197243D2*
Y1220857D1*
X1760000Y1338973D2*
G02X1760000Y1338973I100000J0D01*
G01*
X2100358Y1461847D2*
Y1222087D1*
X1980358Y1461847D2*
Y1222087D1*
G03X2100358Y1222087I60000J-120D01*
G01*
Y1461847D2*
G03X1980358Y1461847I-60000J120D01*
G01*
X2594280Y1194076D2*
X2694280D1*
X2594280Y1394076D2*
Y1194076D1*
Y1394076D2*
X2694280D1*
Y1194076D1*
X2625373Y821099D2*
Y923662D1*
Y821099D2*
X2705877Y754674D1*
Y573432D1*
X2704743Y403122D2*
X1657058D1*
X1655924Y579699D2*
Y935916D1*
X426667Y1557314D2*
X626667D1*
X426667Y3557314D2*
X626667D1*
Y1557314D1*
X426667Y3557314D2*
Y1557314D1*
X1619037Y2068934D2*
Y1968934D1*
X2119037Y2068934D2*
X1619037D1*
X2119037Y1968934D2*
X1619037D1*
X2119037Y2068934D2*
Y1968934D1*
X1696667Y3797725D2*
Y3827825D1*
Y3797725D2*
X1856667D1*
Y3827825D1*
X2776667Y3477825D2*
Y3827825D1*
X776667Y3477825D2*
X2776667D1*
X776667D2*
Y3827825D1*
X1696667D1*
X1856667D2*
X2776667D1*
X776667Y3602775D2*
X802667D1*
Y3702875D1*
X776667D2*
X802667D1*
X2752667Y3602775D2*
X2776667D1*
X2752667D2*
Y3702875D1*
X2776667D1*
X2296643Y3326054D2*
Y3350854D1*
X2396743Y3326054D2*
X2296643D1*
X2396743D2*
Y3350854D1*
X2296643Y2550854D2*
Y2575654D1*
X2396743D2*
X2296643D1*
X2396743Y2550854D2*
Y2575654D1*
X2521693Y3350854D2*
X2171693D1*
X2521693Y2550854D2*
X2171693D1*
X2521693D2*
Y3350854D1*
X2201793Y3030854D2*
X2171693D1*
X2201793Y2870854D2*
Y3030854D1*
Y2870854D2*
X2171693D1*
Y3030854D2*
Y3350854D1*
Y2550854D2*
Y2870854D1*
X426667Y1557314D2*
Y657314D1*
X626667Y1557314D2*
Y657314D1*
X426667Y1557314D2*
X626667D1*
X426667Y657314D2*
X626667D1*
X910357Y1114230D2*
X1087522D1*
Y1507930D1*
X910357D1*
Y1114230D1*
X945790D2*
Y1507930D1*
X2212049Y1422981D2*
X2152049D1*
X2212049Y1262681D2*
Y1422981D1*
Y1262681D2*
X2152049D1*
Y1422981D1*
X1620874Y1416743D2*
X1560874D1*
X1620874Y1256443D2*
Y1416743D1*
Y1256443D2*
X1560874D1*
Y1416743D1*
X1728425Y1417710D2*
X1668425D1*
X1728425Y1257410D2*
Y1417710D1*
Y1257410D2*
X1668425D1*
Y1417710D1*
X2319516Y1423382D2*
X2259516D1*
X2319516Y1263082D2*
Y1423382D1*
Y1263082D2*
X2259516D1*
Y1423382D1*
X1408764Y1415894D2*
X1348764D1*
X1408764Y1255594D2*
Y1415894D1*
Y1255594D2*
X1348764D1*
Y1415894D1*
X1513455Y1415448D2*
X1453455D1*
X1513455Y1255148D2*
Y1415448D1*
Y1255148D2*
X1453455D1*
Y1415448D1*
X2435881Y1422822D2*
X2375881D1*
X2435881Y1262522D2*
Y1422822D1*
Y1262522D2*
X2375881D1*
Y1422822D1*
X656643Y2852714D2*
Y3801914D1*
X756690Y2852714D2*
Y3801914D1*
G03X656643Y3801914I-50024J375D01*
G01*
Y2852714D2*
G03X756690Y2852714I50024J-375D01*
G01*
X2130136Y1859686D2*
X712814D1*
X2130136Y1654950D2*
X712814D1*
Y1859686D2*
Y1654950D1*
X2130136Y1859686D2*
Y1780958D1*
Y1654950D2*
Y1733678D1*
Y1780958D2*
G03X2130136Y1733678I113J-23640D01*
G01*
X801667Y2102210D2*
Y3452313D1*
X2151667Y2102210D2*
X801667D1*
X2151667D2*
Y3452313D1*
X801667D1*
X1502317Y2352120D2*
Y2402046D1*
X1451017D1*
Y2352120D1*
X1502317D1*
D31*
X1476667Y2067570D3*
D32*
X2182299Y1886194D3*
X2271549Y1887233D2*
D10*
Y1627404D1*
X2381785Y1887233D2*
Y1627404D1*
X2271549D2*
X2381785D1*
X2271549Y1887233D2*
X2381785D1*
X1323870Y966382D2*
Y1066382D1*
X923870Y966382D2*
X1323870D1*
X923870Y1066382D2*
X1323870D1*
X923870Y966382D2*
Y1066382D1*
X874848Y813410D2*
Y924643D1*
X961063D1*
X1390627Y813410D2*
Y924643D1*
X1317785D1*
X880146Y963424D2*
Y1363424D1*
X680146Y963424D2*
Y1363424D1*
X880146Y963424D2*
X680146D1*
X880146Y1363424D2*
X680146D1*
X1694438Y4164849D2*
Y4194949D1*
Y4164849D2*
X1854438D1*
Y4194949D1*
X2774438Y3844949D2*
Y4194949D1*
X774438Y3844949D2*
X2774438D1*
X774438D2*
Y4194949D1*
X1694438D1*
X1854438D2*
X2774438D1*
X774438Y3969899D2*
X800438D1*
Y4069999D1*
X774438D2*
X800438D1*
X2750438Y3969899D2*
X2774438D1*
X2750438D2*
Y4069999D1*
X2774438D1*
X767428Y2382745D2*
X667428D1*
X767428Y2182745D2*
Y2382745D1*
Y2182745D2*
X667428D1*
Y2382745D1*
X768202Y2182892D2*
X668202D1*
X768202Y1982892D2*
Y2182892D1*
Y1982892D2*
X668202D1*
Y2182892D1*
M02*
